Patient4_TMGait_0pt7_02_right_33_EMG.mot
version=1
nRows=13
nColumns=33
inDegrees=no
endheader
time	1LAddLong	2LGlutMax	3LGlutMed	4LIliopsoas	5LSemiMemb	6LBicFemLong	7LRecFem	8LVastMed	9LVastLat	10LGasMed	11LTibAnt	12lTibPost	13LPeroneusLong	14LSol	15LExtDigLong	16LFlexDigLong	17RAddLong	18RGlutMax	19RGlutMed	20RIliopsoas	21RSemiMemb	22RBicFemLong	23RRecFem	24RVastMed	25RVastLat	26RGasMed	27RTibAnt	28RTibPost	29RPeroneusLong	30RSol	31RExtDigLong	32RFlexDigLong
38.373	0.012817	-0.07843	-0.040741	-0.006104	0.027466	0.061646	-0.19791	0.00946	0.063477	0.035706	0.021667	-0.014801	-0.03067	0.064697	-0.082092	-0.020142	0.025787	0.004272	-0.3447	0.00473	-0.041046	0.16296	0.058136	0.020905	0.019531	0.001678	-0.8371	-0.004425	0.22156	-0.013123	0.001221	-0.003052
38.374	0.009003	-0.087128	-0.059357	-0.021362	0.029907	0.031891	-0.052032	0.002899	0.087433	0.014954	0.007019	-0.011749	0.068665	0.18494	-0.1001	-0.034485	-0.001526	-0.029907	-0.19989	-0.024414	-0.032806	0.46402	0.001526	0.02121	0.037842	0.000153	-0.7811	-0.007172	0.11871	-0.03006	0.000458	-0.000763
38.375	0.003357	-0.088043	-0.022278	-0.014191	0.002136	-0.026245	0.011902	-0.002747	0.068207	-0.003357	0.012665	-0.017548	-0.019226	0.1474	-0.15045	-0.031128	-0.035706	-0.097504	0.077057	0.039368	-0.2002	0.4071	0.030365	0.002289	0.010986	-0.004425	-0.41382	-0.007629	-0.24216	0.057526	-0.001831	-0.001221
38.376	-0.006561	-0.085144	0.017395	-0.010986	-0.0177	0.02243	0.006104	-0.000916	0.08255	0.015106	0.036774	-0.013123	0.16312	0.10757	-0.13214	-0.031281	-0.04364	-0.067902	-0.052948	0.048676	-0.060272	0.28015	0.066528	-0.084229	0.018463	-0.012665	-0.27695	-0.009308	0.010529	0.090179	0.000916	-0.010834
38.377	-0.015259	-0.078278	0.008392	0.009613	-0.007782	0.0914	0.016632	0.004578	0.098419	-0.017548	0.041046	-0.00885	0.49774	-0.025635	0.065308	-0.028839	-0.016174	-0.029297	-0.3006	0.023346	0.10025	0.14679	0.054016	-0.090179	0.010834	-0.001221	-0.26886	-0.002441	0.17014	-0.028229	0.000305	-0.006866
38.378	-0.009308	-0.054474	-0.019531	0.014954	-0.026245	0.11871	0.03067	0.001068	0.11963	-0.13428	0.023193	-0.007019	0.82214	-0.23712	0.12802	0.010681	0.00885	0.13062	-0.30594	-0.003662	0.075073	0.036926	0.094757	-0.1059	0.006409	-0.000305	-0.056763	-0.00824	0.09491	-0.053101	0.009918	-0.008545
38.379	-0.009003	-0.018311	-0.083466	0.017548	-0.038757	0.099945	0.03479	0.011902	0.092621	-0.23224	0.021362	-0.000153	-0.000458	-0.34759	0.13443	0.040283	0.013733	0.11856	-0.19684	0.005035	0.037994	-0.049133	0.10971	-0.11429	0.001068	-0.004578	-0.057678	-0.006409	0.42252	-0.001984	0.001068	-0.014801
38.38	0.006866	-0.040436	-0.09201	0.008392	-0.019684	0.032349	0.052795	0.00885	0.068054	-0.33341	0.032349	-0.006866	-0.67474	-0.077362	0.13748	-0.36346	-0.0177	0.005951	0.13794	-0.03418	-0.067444	-0.088806	0.12833	-0.13351	0.009155	-0.011139	-0.22476	-0.002441	0.4393	-0.02121	0.000916	-0.013275
38.381	0.017242	-0.053711	-0.094604	0.005493	0.029144	-0.052795	0.038452	0.001373	0.06958	-0.29968	0.008392	0.037689	-0.78537	0.016479	0.097961	-0.23086	0.002594	-0.050964	-0.063324	-0.02594	-0.17425	-0.14572	0.10986	-0.075989	-0.000916	-0.007324	-0.057831	-0.013885	-0.058136	-0.037079	-0.001526	-0.016785
38.382	0.015564	-0.075836	-0.066528	0.000916	0.06958	-0.04715	0.046692	-0.007019	0.053101	-0.025635	-0.005798	0.061951	-0.98511	0.1651	0.11414	0.65781	-0.001373	-0.12955	-0.1033	-0.097961	-0.31189	-0.074615	0.15411	-0.10223	0.002594	-0.006104	0.12863	-0.003967	-0.52704	-0.077362	-0.001373	-0.011749
38.383	0.010681	-0.073242	-0.039825	0.02243	0.019226	-0.036011	0.055389	-0.014191	0.065002	0.22049	-0.001678	-0.4245	-0.82153	0.18387	0.04837	-0.77713	0.003967	-0.1857	-0.11826	-0.19333	-0.27054	0.027161	0.062714	-0.052032	0.000153	0.00351	0.44632	-0.00473	-0.35461	-0.17883	0.001526	-0.019989
38.384	0.003967	-0.080719	-0.051575	0.018921	0.005798	-0.029755	0.053711	-0.006104	0.055542	0.47394	-0.001678	0.14404	-0.24521	0.018768	0.011749	0.12726	0.000916	-0.13062	-0.29434	-0.20767	-0.041809	0.091095	0.059662	0.021057	0.016479	0.002136	0.41596	-0.005493	-0.005341	-0.15717	0.000153	-0.020447
38.385	0.002747	-0.057678	0.003204	0.000305	-0.018005	-0.001526	0.075226	-0.004883	0.063324	0.62714	-0.024719	0.25833	0.21393	-0.26901	0.06485	-0.13794	0.045624	0.007935	-0.43121	-0.10254	0.10223	0.045929	0.067444	-0.02121	0.019226	0.00061	0.31876	-0.011902	0.19058	-0.045624	-0.001373	-0.016174
